<svg xmlns="http://www.w3.org/2000/svg" viewBox="0 0 2000 1200" width="100%" height="100%">
  <!-- خلفية سماوية متدرجة -->
  <defs>
    <linearGradient id="sky" x1="0" y1="0" x2="0" y2="1">
      <stop offset="0%" stop-color="#e0f7fa"/>
      <stop offset="100%" stop-color="#ffffff"/>
    </linearGradient>
  </defs>
  <rect width="2000" height="1200" fill="url(#sky)" />

  <!-- خريطة العالم -->
  <path fill="#0077FF" opacity="0.08" d="M476 182l-14-6-8 2-4-8-6-2-10 4-2-6h-6l-6-6-10-2-2-10 8-10 14-2 4 6 6-2 6-8 10-2 10 2 2 8h8l-2 12 6 10-2 10-12 2-2 10-8 2zM840 300l-12-6-12 2-4-10-10-2-6-10 6-8 8-2 2-6 14-2 8 2 8 8-2 12 4 8-2 10-10 4zM1240 480l-8-4-12 4-10-4-6-8 2-12 10-6 14 2 8-2 12 2 2 12-8 10-4 6zM1600 360l-10-2-10 2-6-6 2-10 8-6h12l8 6v10l-4 6zM1800 620l-10-6-12 2-4-6 2-10 8-4 10 2 10 4 2 8-6 10z"/>

  <!-- الطائرة -->
  <g transform="translate(500,300) scale(2)">
    <path fill="#333" d="M12 2l50 18-5 10-30-5-10 20-15-5 8-22-20-6z"/>
  </g>

  <!-- ظلال مسافرين -->
  <g transform="translate(1500,800) scale(3)">
    <circle cx="20" cy="10" r="10" fill="#333" opacity="0.6"/>
    <rect x="15" y="20" width="10" height="30" rx="5" fill="#333" opacity="0.6"/>
    <circle cx="50" cy="10" r="10" fill="#333" opacity="0.6"/>
    <rect x="45" y="20" width="10" height="30" rx="5" fill="#333" opacity="0.6"/>
    <circle cx="80" cy="10" r="10" fill="#333" opacity="0.6"/>
    <rect x="75" y="20" width="10" height="30" rx="5" fill="#333" opacity="0.6"/>
  </g>
</svg>